<mxfile host="app.diagrams.net" modified="2023-08-20T08:11:09.080Z" agent="Mozilla/5.0 (Windows NT 10.0; Win64; x64) AppleWebKit/537.36 (KHTML, like Gecko) Chrome/116.0.0.0 Safari/537.36" etag="wPaj0ilrp7cpN_UVHnbX" version="21.6.8" type="github">
  <diagram name="Page-1" id="mWiwSE8O6O-OofJwE4U6">
    <mxGraphModel dx="1434" dy="750" grid="1" gridSize="10" guides="1" tooltips="1" connect="1" arrows="1" fold="1" page="1" pageScale="1" pageWidth="1169" pageHeight="827" math="0" shadow="0">
      <root>
        <mxCell id="0" />
        <mxCell id="1" parent="0" />
        <mxCell id="t2HaRchMxbr2skZr-Fjd-1" value="" style="rounded=0;html=1;jettySize=auto;orthogonalLoop=1;fontSize=11;endArrow=block;endFill=0;endSize=8;strokeWidth=1;shadow=0;labelBackgroundColor=none;edgeStyle=orthogonalEdgeStyle;" edge="1" parent="1" source="t2HaRchMxbr2skZr-Fjd-2" target="t2HaRchMxbr2skZr-Fjd-5">
          <mxGeometry relative="1" as="geometry" />
        </mxCell>
        <mxCell id="t2HaRchMxbr2skZr-Fjd-2" value="email trigger&amp;nbsp;" style="rounded=1;whiteSpace=wrap;html=1;fontSize=12;glass=0;strokeWidth=1;shadow=0;" vertex="1" parent="1">
          <mxGeometry x="490" y="219" width="120" height="40" as="geometry" />
        </mxCell>
        <mxCell id="t2HaRchMxbr2skZr-Fjd-3" value="Yes" style="rounded=0;html=1;jettySize=auto;orthogonalLoop=1;fontSize=11;endArrow=block;endFill=0;endSize=8;strokeWidth=1;shadow=0;labelBackgroundColor=none;edgeStyle=orthogonalEdgeStyle;" edge="1" parent="1" source="t2HaRchMxbr2skZr-Fjd-5" target="t2HaRchMxbr2skZr-Fjd-9">
          <mxGeometry y="20" relative="1" as="geometry">
            <mxPoint as="offset" />
          </mxGeometry>
        </mxCell>
        <mxCell id="t2HaRchMxbr2skZr-Fjd-4" value="No" style="edgeStyle=orthogonalEdgeStyle;rounded=0;html=1;jettySize=auto;orthogonalLoop=1;fontSize=11;endArrow=block;endFill=0;endSize=8;strokeWidth=1;shadow=0;labelBackgroundColor=none;" edge="1" parent="1" source="t2HaRchMxbr2skZr-Fjd-5" target="t2HaRchMxbr2skZr-Fjd-6">
          <mxGeometry y="10" relative="1" as="geometry">
            <mxPoint as="offset" />
          </mxGeometry>
        </mxCell>
        <mxCell id="t2HaRchMxbr2skZr-Fjd-5" value="No Relay" style="rhombus;whiteSpace=wrap;html=1;shadow=0;fontFamily=Helvetica;fontSize=12;align=center;strokeWidth=1;spacing=6;spacingTop=-4;" vertex="1" parent="1">
          <mxGeometry x="500" y="309" width="100" height="80" as="geometry" />
        </mxCell>
        <mxCell id="t2HaRchMxbr2skZr-Fjd-6" value="redirect to Postmaster User" style="rounded=1;whiteSpace=wrap;html=1;fontSize=12;glass=0;strokeWidth=1;shadow=0;" vertex="1" parent="1">
          <mxGeometry x="650" y="329" width="160" height="40" as="geometry" />
        </mxCell>
        <mxCell id="t2HaRchMxbr2skZr-Fjd-7" value="No" style="rounded=0;html=1;jettySize=auto;orthogonalLoop=1;fontSize=11;endArrow=block;endFill=0;endSize=8;strokeWidth=1;shadow=0;labelBackgroundColor=none;edgeStyle=orthogonalEdgeStyle;" edge="1" parent="1" source="t2HaRchMxbr2skZr-Fjd-9" target="t2HaRchMxbr2skZr-Fjd-10">
          <mxGeometry x="0.3333" y="20" relative="1" as="geometry">
            <mxPoint as="offset" />
          </mxGeometry>
        </mxCell>
        <mxCell id="t2HaRchMxbr2skZr-Fjd-8" value="Yes" style="edgeStyle=orthogonalEdgeStyle;rounded=0;html=1;jettySize=auto;orthogonalLoop=1;fontSize=11;endArrow=block;endFill=0;endSize=8;strokeWidth=1;shadow=0;labelBackgroundColor=none;" edge="1" parent="1" source="t2HaRchMxbr2skZr-Fjd-9" target="t2HaRchMxbr2skZr-Fjd-11">
          <mxGeometry y="10" relative="1" as="geometry">
            <mxPoint as="offset" />
          </mxGeometry>
        </mxCell>
        <mxCell id="t2HaRchMxbr2skZr-Fjd-9" value="Bulb&lt;br&gt;burned out?" style="rhombus;whiteSpace=wrap;html=1;shadow=0;fontFamily=Helvetica;fontSize=12;align=center;strokeWidth=1;spacing=6;spacingTop=-4;" vertex="1" parent="1">
          <mxGeometry x="500" y="429" width="100" height="80" as="geometry" />
        </mxCell>
        <mxCell id="t2HaRchMxbr2skZr-Fjd-10" value="Repair Lamp" style="rounded=1;whiteSpace=wrap;html=1;fontSize=12;glass=0;strokeWidth=1;shadow=0;" vertex="1" parent="1">
          <mxGeometry x="490" y="569" width="120" height="40" as="geometry" />
        </mxCell>
        <mxCell id="t2HaRchMxbr2skZr-Fjd-11" value="Replace Bulb" style="rounded=1;whiteSpace=wrap;html=1;fontSize=12;glass=0;strokeWidth=1;shadow=0;" vertex="1" parent="1">
          <mxGeometry x="650" y="449" width="170" height="40" as="geometry" />
        </mxCell>
      </root>
    </mxGraphModel>
  </diagram>
</mxfile>
